<?xml version="1.0" standalone="no"?>
<!DOCTYPE svg PUBLIC "-//W3C//DTD SVG 1.1//EN" "http://www.w3.org/Graphics/SVG/1.1/DTD/svg11.dtd" >
<svg xmlns="http://www.w3.org/2000/svg" xmlns:xlink="http://www.w3.org/1999/xlink" version="1.1">
<metadata></metadata>
<defs>
<font id="dk_carambolaregular" horiz-adv-x="1228" >
<font-face units-per-em="2048" ascent="1638" descent="-410" />
<missing-glyph horiz-adv-x="573" />
<glyph horiz-adv-x="0" />
<glyph horiz-adv-x="682" />
<glyph unicode=" "  horiz-adv-x="573" />
<glyph unicode="&#x09;" horiz-adv-x="573" />
<glyph unicode="&#xa0;" horiz-adv-x="573" />
<glyph unicode="!" horiz-adv-x="409" d="M102 102q0 43 30 73t73 30t72.5 -30t29.5 -73t-29.5 -72.5t-72.5 -29.5t-73 29.5t-30 72.5zM102 410v1228h205v-1228h-205z" />
<glyph unicode="&#x22;" horiz-adv-x="892" d="M102 1491q0 60 43.5 102.5t102.5 42.5q73 0 110 -46.5t37 -119.5q0 -120 -85 -206t-206 -86v82q105 16 162 83q-68 0 -116 40t-48 108zM498 1491q0 60 43 102.5t102 42.5q73 0 110.5 -46.5t37.5 -119.5q0 -120 -85 -206t-206 -86v82q105 16 162 83q-68 0 -116 40t-48 108 z" />
<glyph unicode="$" horiz-adv-x="1028" d="M102 410h205q0 -68 40 -122.5t104 -74.5v528l-172 152q-177 144 -177 336q0 152 100 267t249 138v209h106v-207q154 -17 259.5 -134t105.5 -273h-205q0 71 -46 127t-114 71v-514l266 -239q55 -55 80.5 -127t21 -144t-33.5 -143t-76.5 -126.5t-115 -91.5t-142.5 -40v-207 h-106v209q-149 22 -249 137.5t-100 268.5zM307 1229q0 -77 49 -135l95 -86v415q-64 -20 -104 -73.5t-40 -120.5zM557 209q68 15 114 71.5t46 129.5q0 86 -66 155l-94 82v-438z" />
<glyph unicode="'" horiz-adv-x="497" d="M102 1491q0 60 43.5 102.5t102.5 42.5q73 0 110 -46.5t37 -119.5q0 -120 -85 -206t-206 -86v82q105 16 162 83q-68 0 -116 40t-48 108z" />
<glyph unicode="(" horiz-adv-x="749" d="M102 819q0 129 17.5 240.5t58 211.5t102 173.5t155 123t212.5 64.5v-119q-98 -53 -165.5 -124t-105 -160.5t-53.5 -187.5t-16 -222q0 -255 74.5 -423t265.5 -271v-119q-119 14 -212.5 63.5t-155 123t-102 174t-58 211.5t-17.5 241z" />
<glyph unicode=")" horiz-adv-x="749" d="M102 6v119q191 103 265.5 271t74.5 423q0 124 -16 222t-53.5 187.5t-105 160.5t-165.5 124v119q119 -15 212.5 -64.5t155 -123t102 -173.5t58 -211.5t17.5 -240.5q0 -130 -17.5 -241t-58 -211.5t-102 -174t-155 -123t-212.5 -63.5z" />
<glyph unicode="," horiz-adv-x="409" d="M102 102q0 43 30 73t73 30t72.5 -30t29.5 -73q0 -63 -43 -119t-106 -63q44 44 35 80q-39 5 -65 34t-26 68z" />
<glyph unicode="-" horiz-adv-x="1024" d="M102 715v205h820v-205h-820z" />
<glyph unicode="." horiz-adv-x="409" d="M102 102q0 43 30 73t73 30t72.5 -30t29.5 -73t-29.5 -72.5t-72.5 -29.5t-73 29.5t-30 72.5z" />
<glyph unicode="/" horiz-adv-x="1138" d="M102 0l711 1638h223l-710 -1638h-224z" />
<glyph unicode="0" horiz-adv-x="1843" d="M102 819q0 167 65 318.5t174.5 261t261.5 174.5t319 65t318.5 -65t261 -174.5t174.5 -261t65 -318.5t-65 -318.5t-174.5 -261t-261 -174.5t-318.5 -65t-319 65t-261.5 174.5t-174.5 261t-65 318.5zM307 819q0 -125 48.5 -239t131 -196t196.5 -130.5t239 -48.5 q167 0 308.5 82t223.5 223.5t82 308.5q0 125 -48.5 239t-130.5 196.5t-196 131t-239 48.5t-239 -48.5t-196.5 -131t-131 -196.5t-48.5 -239z" />
<glyph unicode="1" horiz-adv-x="614" d="M102 1229v192q49 4 85 22.5t58 49t35 65t21 80.5h211v-1638h-205v1229h-205z" />
<glyph unicode="2" horiz-adv-x="1042" d="M102 0q21 42 133 227t217.5 363.5t194 367.5t88.5 271q0 85 -60 145t-145 60t-144.5 -60t-59.5 -145h-205q0 169 120 289t289 120q109 0 203.5 -53t150.5 -145.5t56 -200.5v-10q-2 -75 -14.5 -133.5t-60.5 -169.5t-143 -280t-259 -441h477v-205h-838z" />
<glyph unicode="3" d="M102 512h205q0 -128 89.5 -217.5t217.5 -89.5t218 90t90 217q0 120 -80 207t-199 98h-57l2 205h53q75 11 126.5 69t51.5 136q0 85 -60 145t-145 60q-84 0 -144 -60t-60 -143h-205q0 167 120 287t289 120t289.5 -120t120.5 -289q0 -173 -121 -291q103 -70 163 -182 t60 -242q0 -212 -150 -362t-362 -150t-362 150t-150 362z" />
<glyph unicode="4" horiz-adv-x="1273" d="M102 410l490 1228h229l-405 -1024h346v205h205v-205h204v-204h-204l2 -410h-205l-2 410h-660z" />
<glyph unicode="5" d="M102 496h205q6 -122 95 -206.5t212 -84.5q128 0 218 90t90 217t-90 217t-218 90h-338l351 819h499v-204h-358l-176 -410q16 2 49 2q110 0 202.5 -42.5t153.5 -114t95 -164t34 -193.5q0 -212 -150 -362t-362 -150q-136 0 -252.5 66t-186 180t-73.5 250z" />
<glyph unicode="6" d="M102 512q0 129 59 290.5t351 835.5h229l-272 -637q74 23 145 23q212 0 362 -150t150 -362t-150 -362t-362 -150t-362 150t-150 362zM307 512q0 -128 89.5 -217.5t217.5 -89.5t218 90t90 217t-90 217t-218 90t-217.5 -89.5t-89.5 -217.5z" />
<glyph unicode="7" horiz-adv-x="931" d="M102 0l449 1434h-449v204h727l-510 -1638h-217z" />
<glyph unicode="8" d="M102 512q0 129 61 241t165 183q-123 120 -123 291q0 169 120 289t289 120t289.5 -120t120.5 -289q0 -173 -121 -291q103 -70 163 -182t60 -242q0 -212 -150 -362t-362 -150t-362 150t-150 362zM307 512q0 -128 89.5 -217.5t217.5 -89.5t218 90t90 217q0 120 -80 207 t-199 98h-57q-118 -11 -198.5 -98.5t-80.5 -206.5zM410 1227q0 -78 51.5 -136t126.5 -69h53q75 11 126.5 69t51.5 136q0 85 -60 145t-145 60t-144.5 -60t-59.5 -145z" />
<glyph unicode="9" d="M102 1126q0 212 150 362t362 150t362 -150t150 -362q0 -49 -2 -79.5t-19.5 -95t-37 -118t-74.5 -188t-110.5 -263t-165.5 -382.5h-230l273 637q-74 -23 -146 -23q-212 0 -362 150t-150 362zM307 1126q0 -128 89.5 -217.5t217.5 -89.5t218 90t90 217q0 128 -90 218 t-218 90q-127 0 -217 -90t-90 -218z" />
<glyph unicode=":" horiz-adv-x="409" d="M102 102q0 43 30 73t73 30t72.5 -30t29.5 -73t-29.5 -72.5t-72.5 -29.5t-73 29.5t-30 72.5zM102 1331q0 43 30 73t73 30t72.5 -30t29.5 -73t-29.5 -72.5t-72.5 -29.5t-73 29.5t-30 72.5z" />
<glyph unicode=";" horiz-adv-x="409" d="M102 102q0 43 30 73t73 30t72.5 -30t29.5 -73q0 -63 -43 -119t-106 -63q44 44 35 80q-39 5 -65 34t-26 68zM102 1331q0 43 30 73t73 30t72.5 -30t29.5 -73t-29.5 -72.5t-72.5 -29.5t-73 29.5t-30 72.5z" />
<glyph unicode="=" horiz-adv-x="1024" d="M102 563v205h820v-205h-820zM102 872v205h820v-205h-820z" />
<glyph unicode="?" horiz-adv-x="1024" d="M102 1229q0 169 120.5 289t289.5 120t289.5 -120t120.5 -289q0 -57 -10.5 -105t-38 -100.5t-82.5 -101.5t-136 -93v-419h-204v516q149 88 207.5 159.5t58.5 143.5q0 85 -60 145t-145 60t-145 -60t-60 -145h-205zM451 102q0 43 29.5 73t72.5 30t72.5 -30t29.5 -73 t-29.5 -72.5t-72.5 -29.5t-72.5 29.5t-29.5 72.5z" />
<glyph unicode="@" horiz-adv-x="1843" d="M102 819q0 167 65 318.5t174.5 261t261.5 174.5t319 65t318.5 -65t261 -174.5t174.5 -261t65 -318.5q0 -70 -9.5 -138t-34.5 -137.5t-62.5 -121t-99 -84.5t-138.5 -33q-127 0 -217 90q-129 -90 -291 -90q-212 0 -362 150t-150 362t150 362t362 150q107 0 201 -43v43h176 q-156 105 -344 105q-125 0 -239 -48.5t-196.5 -131t-131 -196.5t-48.5 -239t48.5 -239t131 -196t196.5 -130.5t239 -48.5q80 0 143 16v-209q-71 -12 -143 -12q-167 0 -319 65t-261.5 174.5t-174.5 261t-65 318.5zM582 817q0 -127 90 -217t217 -90q120 0 203 74q-2 10 -2 28 v437q-85 75 -201 75q-127 0 -217 -90t-90 -217zM1294 612q0 -43 30 -72.5t73 -29.5q42 0 72 34t43.5 88t18.5 99t5 88q0 146 -64.5 273.5t-177.5 214.5v-695z" />
<glyph unicode="A" d="M102 1024h205v205q0 169 120.5 289t289.5 120t289 -120t120 -289v-1229h-204v819h-410v-819h-205v819h-98zM512 1024h410v205q0 85 -60 145t-145 60t-145 -60t-60 -145v-205z" />
<glyph unicode="B" horiz-adv-x="1122" d="M102 0v1638h205q111 -1 205 -56.5t148.5 -149t54.5 -203.5q0 -121 -68 -225q163 -45 268 -182t105 -310q0 -212 -150 -362t-362 -150h-406zM307 205h205q126 2 214.5 91t88.5 216q0 128 -89.5 217.5t-217.5 89.5h-201v-614zM307 1024q85 0 144 60t59 145q0 83 -59 143.5 t-144 61.5v-410z" />
<glyph unicode="C" horiz-adv-x="1167" d="M102 819q0 167 65 318.5t174.5 261t261.5 174.5t319 65q72 0 143 -12v-209q-80 17 -143 17q-125 0 -239 -48.5t-196.5 -131t-131 -196.5t-48.5 -239t48.5 -239t131 -196t196.5 -130.5t239 -48.5q80 0 143 16v-209q-71 -12 -143 -12q-167 0 -319 65t-261.5 174.5 t-174.5 261t-65 318.5z" />
<glyph unicode="D" horiz-adv-x="1290" d="M102 0v1638h267q167 0 318.5 -65t261 -174.5t174.5 -261t65 -318.5t-65 -318.5t-174.5 -261t-261 -174.5t-318.5 -65h-267zM307 205h62q167 0 308.5 82t223.5 223.5t82 308.5q0 125 -48.5 239t-130.5 196.5t-196 131t-239 48.5l-62 -2v-1227z" />
<glyph unicode="E" d="M102 1024h205v614h819v-204h-614v-410h410v-205h-410v-614h614v-205h-819v819h-102z" />
<glyph unicode="F" d="M102 1024h205v614h819v-204h-614v-410h410v-205h-410v-819h-205v819h-102z" />
<glyph unicode="G" horiz-adv-x="1167" d="M102 819q0 167 65 318.5t174.5 261t261.5 174.5t319 65q72 0 143 -12v-209q-80 17 -143 17q-125 0 -239 -48.5t-196.5 -131t-131 -196.5t-48.5 -239q0 -157 73 -292t199.5 -220t280.5 -100v817h205v-1012q-71 -12 -143 -12q-167 0 -319 65t-261.5 174.5t-174.5 261 t-65 318.5z" />
<glyph unicode="H" d="M102 1024h205v614h205v-614h410v614h204v-1638h-204v819h-410v-819h-205v819h-102z" />
<glyph unicode="I" horiz-adv-x="409" d="M102 0v1638h205v-1638h-205z" />
<glyph unicode="J" horiz-adv-x="1024" d="M102 410h205q0 -85 60 -145t145 -60t145 60t60 145v1228h205v-1228q0 -169 -120.5 -289.5t-289.5 -120.5t-289.5 120.5t-120.5 289.5z" />
<glyph unicode="K" horiz-adv-x="1245" d="M102 0v1638h205v-620l561 620h275l-598 -661l573 -977h-237l-574 979v-979h-205z" />
<glyph unicode="L" horiz-adv-x="1024" d="M102 0v1638h205v-1433h615v-205h-820z" />
<glyph unicode="M" horiz-adv-x="1480" d="M102 0l265 1636l374 -1040l375 1040l262 -1636h-209l-131 821l-299 -821l-295 821l-133 -821h-209z" />
<glyph unicode="N" horiz-adv-x="1024" d="M102 0v1638l615 -526v526h205v-1638h-205v844l-410 350v-1194h-205z" />
<glyph unicode="O" horiz-adv-x="1843" d="M102 819q0 167 65 318.5t174.5 261t261.5 174.5t319 65t318.5 -65t261 -174.5t174.5 -261t65 -318.5t-65 -318.5t-174.5 -261t-261 -174.5t-318.5 -65t-319 65t-261.5 174.5t-174.5 261t-65 318.5zM307 819q0 -125 48.5 -239t131 -196t196.5 -130.5t239 -48.5 q167 0 308.5 82t223.5 223.5t82 308.5q0 125 -48.5 239t-130.5 196.5t-196 131t-239 48.5t-239 -48.5t-196.5 -131t-131 -196.5t-48.5 -239z" />
<glyph unicode="P" horiz-adv-x="1224" d="M102 1024h205v614l410 -2q110 -1 203 -56.5t147.5 -149t54.5 -203.5q0 -169 -120 -288.5t-289 -119.5h-201v-819h-205v819h-102zM512 1024h205q83 0 142 59t59 144t-60 146t-145 61h-201v-410z" />
<glyph unicode="Q" horiz-adv-x="1843" d="M102 819q0 167 65 318.5t174.5 261t261.5 174.5t319 65t318.5 -65t261 -174.5t174.5 -261t65 -318.5q0 -214 -102.5 -396.5t-276.5 -293.5l129 -242l-180 -96l-135 250q-121 -41 -254 -41q-167 0 -319 65t-261.5 174.5t-174.5 261t-65 318.5zM307 819q0 -125 48.5 -239 t131 -196t196.5 -130.5t239 -48.5q85 0 155 20l-250 469l181 97l258 -482q125 85 197.5 219t72.5 291q0 125 -48.5 239t-130.5 196.5t-196 131t-239 48.5t-239 -48.5t-196.5 -131t-131 -196.5t-48.5 -239z" />
<glyph unicode="R" horiz-adv-x="1239" d="M102 1024h205v614l410 -2q110 -1 203 -56.5t147.5 -149t54.5 -203.5q0 -162 -111.5 -279.5t-271.5 -128.5l398 -819h-228l-397 817v-817h-205v819h-102zM512 1024h205q83 0 142 59t59 144t-60 146t-145 61h-201v-410z" />
<glyph unicode="S" horiz-adv-x="860" d="M115 1329q31 136 139.5 222.5t245.5 86.5h200v-204l-172 -2q-78 -2 -138 -42.5t-77 -113.5q-4 -24 -5 -46q0 -54 26 -102l360 -536q40 -60 54 -130q8 -41 8 -79q0 -29 -4 -55q-10 -64 -41.5 -124.5t-78 -105t-110 -71.5t-133.5 -27h-229v205h219q53 0 91 32t54 80 q12 37 12 81v25q-4 58 -32 109l-291 422q-109 141 -109 285q0 45 11 90z" />
<glyph unicode="T" horiz-adv-x="1024" d="M102 1434v204h820v-204h-308v-1434h-204v1434h-308z" />
<glyph unicode="U" horiz-adv-x="1024" d="M102 410v1228h205v-1228q0 -85 60 -145t145 -60t145 60t60 145v1228h205v-1228q0 -169 -120.5 -289.5t-289.5 -120.5t-289.5 120.5t-120.5 289.5z" />
<glyph unicode="V" horiz-adv-x="1232" d="M102 1638h215l299 -958l299 958h215l-514 -1644z" />
<glyph unicode="W" horiz-adv-x="1681" d="M102 1636h209l205 -862l324 862l329 -862l201 862h209l-362 -1636l-375 1040l-375 -1040z" />
<glyph unicode="X" horiz-adv-x="1138" d="M102 0l355 819l-355 819h224l243 -561l244 561h223l-356 -819l356 -819h-223l-244 561l-243 -561h-224z" />
<glyph unicode="Y" horiz-adv-x="1275" d="M102 1638h236l289 -548l313 548h234l-445 -809v-829h-205v836z" />
<glyph unicode="Z" horiz-adv-x="933" d="M102 0l449 1434h-449v204h727l-448 -1433h450v-205h-729z" />
<glyph unicode="[" horiz-adv-x="512" d="M102 0v1638h308v-106h-103v-1434h103v-98h-308z" />
<glyph unicode="\" horiz-adv-x="1138" d="M102 1638h224l710 -1638h-223z" />
<glyph unicode="]" horiz-adv-x="512" d="M102 0v98h103v1434h-103v106h308v-1638h-308z" />
<glyph unicode="_" d="M102 0v102h1024v-102h-1024z" />
<glyph unicode="a" d="M102 1024h205v205q0 169 120.5 289t289.5 120t289 -120t120 -289v-1229h-204v819h-410v-819h-205v819h-98zM512 1024h410v205q0 85 -60 145t-145 60t-145 -60t-60 -145v-205z" />
<glyph unicode="b" horiz-adv-x="1122" d="M102 0v1638h205q111 -1 205 -56.5t148.5 -149t54.5 -203.5q0 -121 -68 -225q163 -45 268 -182t105 -310q0 -212 -150 -362t-362 -150h-406zM307 205h205q126 2 214.5 91t88.5 216q0 128 -89.5 217.5t-217.5 89.5h-201v-614zM307 1024q85 0 144 60t59 145q0 83 -59 143.5 t-144 61.5v-410z" />
<glyph unicode="c" horiz-adv-x="1167" d="M102 819q0 167 65 318.5t174.5 261t261.5 174.5t319 65q72 0 143 -12v-209q-80 17 -143 17q-125 0 -239 -48.5t-196.5 -131t-131 -196.5t-48.5 -239t48.5 -239t131 -196t196.5 -130.5t239 -48.5q80 0 143 16v-209q-71 -12 -143 -12q-167 0 -319 65t-261.5 174.5 t-174.5 261t-65 318.5z" />
<glyph unicode="d" horiz-adv-x="1290" d="M102 0v1638h267q167 0 318.5 -65t261 -174.5t174.5 -261t65 -318.5t-65 -318.5t-174.5 -261t-261 -174.5t-318.5 -65h-267zM307 205h62q167 0 308.5 82t223.5 223.5t82 308.5q0 125 -48.5 239t-130.5 196.5t-196 131t-239 48.5l-62 -2v-1227z" />
<glyph unicode="e" d="M102 1024h205v614h819v-204h-614v-410h410v-205h-410v-614h614v-205h-819v819h-102z" />
<glyph unicode="f" d="M102 1024h205v614h819v-204h-614v-410h410v-205h-410v-819h-205v819h-102z" />
<glyph unicode="g" horiz-adv-x="1167" d="M102 819q0 167 65 318.5t174.5 261t261.5 174.5t319 65q72 0 143 -12v-209q-80 17 -143 17q-125 0 -239 -48.5t-196.5 -131t-131 -196.5t-48.5 -239q0 -157 73 -292t199.5 -220t280.5 -100v817h205v-1012q-71 -12 -143 -12q-167 0 -319 65t-261.5 174.5t-174.5 261 t-65 318.5z" />
<glyph unicode="h" d="M102 1024h205v614h205v-614h410v614h204v-1638h-204v819h-410v-819h-205v819h-102z" />
<glyph unicode="i" horiz-adv-x="409" d="M102 0v1638h205v-1638h-205z" />
<glyph unicode="j" horiz-adv-x="1024" d="M102 410h205q0 -85 60 -145t145 -60t145 60t60 145v1228h205v-1228q0 -169 -120.5 -289.5t-289.5 -120.5t-289.5 120.5t-120.5 289.5z" />
<glyph unicode="k" horiz-adv-x="1245" d="M102 0v1638h205v-620l561 620h275l-598 -661l573 -977h-237l-574 979v-979h-205z" />
<glyph unicode="l" horiz-adv-x="1024" d="M102 0v1638h205v-1433h615v-205h-820z" />
<glyph unicode="m" horiz-adv-x="1480" d="M102 0l265 1636l374 -1040l375 1040l262 -1636h-209l-131 821l-299 -821l-295 821l-133 -821h-209z" />
<glyph unicode="n" horiz-adv-x="1024" d="M102 0v1638l615 -526v526h205v-1638h-205v844l-410 350v-1194h-205z" />
<glyph unicode="o" horiz-adv-x="1843" d="M102 819q0 167 65 318.5t174.5 261t261.5 174.5t319 65t318.5 -65t261 -174.5t174.5 -261t65 -318.5t-65 -318.5t-174.5 -261t-261 -174.5t-318.5 -65t-319 65t-261.5 174.5t-174.5 261t-65 318.5zM307 819q0 -125 48.5 -239t131 -196t196.5 -130.5t239 -48.5 q167 0 308.5 82t223.5 223.5t82 308.5q0 125 -48.5 239t-130.5 196.5t-196 131t-239 48.5t-239 -48.5t-196.5 -131t-131 -196.5t-48.5 -239z" />
<glyph unicode="p" horiz-adv-x="1224" d="M102 1024h205v614l410 -2q110 -1 203 -56.5t147.5 -149t54.5 -203.5q0 -169 -120 -288.5t-289 -119.5h-201v-819h-205v819h-102zM512 1024h205q83 0 142 59t59 144t-60 146t-145 61h-201v-410z" />
<glyph unicode="q" horiz-adv-x="1843" d="M102 819q0 167 65 318.5t174.5 261t261.5 174.5t319 65t318.5 -65t261 -174.5t174.5 -261t65 -318.5q0 -214 -102.5 -396.5t-276.5 -293.5l129 -242l-180 -96l-135 250q-121 -41 -254 -41q-167 0 -319 65t-261.5 174.5t-174.5 261t-65 318.5zM307 819q0 -125 48.5 -239 t131 -196t196.5 -130.5t239 -48.5q85 0 155 20l-250 469l181 97l258 -482q125 85 197.5 219t72.5 291q0 125 -48.5 239t-130.5 196.5t-196 131t-239 48.5t-239 -48.5t-196.5 -131t-131 -196.5t-48.5 -239z" />
<glyph unicode="r" horiz-adv-x="1239" d="M102 1024h205v614l410 -2q110 -1 203 -56.5t147.5 -149t54.5 -203.5q0 -162 -111.5 -279.5t-271.5 -128.5l398 -819h-228l-397 817v-817h-205v819h-102zM512 1024h205q83 0 142 59t59 144t-60 146t-145 61h-201v-410z" />
<glyph unicode="s" horiz-adv-x="860" d="M115 1329q31 136 139.5 222.5t245.5 86.5h200v-204l-172 -2q-78 -2 -138 -42.5t-77 -113.5q-4 -24 -5 -46q0 -54 26 -102l360 -536q40 -60 54 -130q8 -41 8 -79q0 -29 -4 -55q-10 -64 -41.5 -124.5t-78 -105t-110 -71.5t-133.5 -27h-229v205h219q53 0 91 32t54 80 q12 37 12 81v25q-4 58 -32 109l-291 422q-109 141 -109 285q0 45 11 90z" />
<glyph unicode="t" horiz-adv-x="1024" d="M102 1434v204h820v-204h-308v-1434h-204v1434h-308z" />
<glyph unicode="u" horiz-adv-x="1024" d="M102 410v1228h205v-1228q0 -85 60 -145t145 -60t145 60t60 145v1228h205v-1228q0 -169 -120.5 -289.5t-289.5 -120.5t-289.5 120.5t-120.5 289.5z" />
<glyph unicode="v" horiz-adv-x="1232" d="M102 1638h215l299 -958l299 958h215l-514 -1644z" />
<glyph unicode="w" horiz-adv-x="1681" d="M102 1636h209l205 -862l324 862l329 -862l201 862h209l-362 -1636l-375 1040l-375 -1040z" />
<glyph unicode="x" horiz-adv-x="1138" d="M102 0l355 819l-355 819h224l243 -561l244 561h223l-356 -819l356 -819h-223l-244 561l-243 -561h-224z" />
<glyph unicode="y" horiz-adv-x="1275" d="M102 1638h236l289 -548l313 548h234l-445 -809v-829h-205v836z" />
<glyph unicode="z" horiz-adv-x="933" d="M102 0l449 1434h-449v204h727l-448 -1433h450v-205h-729z" />
<glyph unicode="|" horiz-adv-x="409" d="M102 0v1638h205v-1638h-205z" />
<glyph unicode="&#xa1;" horiz-adv-x="409" d="M102 0v1229h205v-1229h-205zM102 1536q0 43 30 72.5t73 29.5t72.5 -29.5t29.5 -72.5t-29.5 -72.5t-72.5 -29.5t-73 29.5t-30 72.5z" />
<glyph unicode="&#xa3;" horiz-adv-x="1331" d="M102 1024h205v205q0 169 120.5 289t289.5 120t289 -120t120 -289h-204q0 85 -60 145t-145 60t-145 -60t-60 -145v-205h102l103 -205h-205v-614h717v-205h-922v819h-102z" />
<glyph unicode="&#xa5;" horiz-adv-x="1275" d="M102 1638h236l289 -548l313 548h234l-338 -614h188v-205h-295v-106h295v-201h-295v-512h-205v512h-319v201h319v106h-319v205h219z" />
<glyph unicode="&#xaa;" horiz-adv-x="815" d="M102 1329q0 126 91 216.5t217 90.5q64 0 120 -24v24h121v-430q0 -25 18 -42t44 -17v-123q-75 0 -131 53q-75 -53 -172 -53q-126 0 -217 90t-91 215zM227 1329q0 -76 53 -129t130 -53q69 0 122 43q-2 4 -2 16v264q-50 41 -120 41q-77 0 -130 -53t-53 -129z" />
<glyph unicode="&#xab;" d="M102 684v270l496 275v-246l-303 -164l303 -172v-237zM631 684v270l495 275v-246l-303 -164l303 -172v-237z" />
<glyph unicode="&#xad;" horiz-adv-x="1024" d="M102 715v205h820v-205h-820z" />
<glyph unicode="&#xba;" horiz-adv-x="819" d="M102 1331q0 124 91.5 215.5t216.5 91.5q126 0 216.5 -91t90.5 -216q0 -126 -90.5 -216.5t-216.5 -90.5q-125 0 -216.5 90.5t-91.5 216.5zM238 1331q0 -75 48.5 -124.5t123.5 -49.5t124.5 49.5t49.5 124.5t-49.5 123.5t-124.5 48.5t-123.5 -48.5t-48.5 -123.5z" />
<glyph unicode="&#xbb;" d="M102 410v237l304 172l-304 164v246l496 -275v-270zM631 410v237l303 172l-303 164v246l495 -275v-270z" />
<glyph unicode="&#xbf;" horiz-adv-x="1024" d="M102 410q0 57 10.5 105t38 100t82.5 101t136 93v420h204v-516q-149 -88 -207.5 -159.5t-58.5 -143.5q0 -85 60 -145t145 -60t145 60t60 145h205q0 -169 -120.5 -289.5t-289.5 -120.5t-289.5 120.5t-120.5 289.5zM369 1536q0 43 29.5 72.5t72.5 29.5t72.5 -29.5 t29.5 -72.5t-29.5 -72.5t-72.5 -29.5t-72.5 29.5t-29.5 72.5z" />
<glyph unicode="&#xc0;" d="M102 1024h205v205q0 169 120.5 289t289.5 120t289 -120t120 -289v-1229h-204v819h-410v-819h-205v819h-98zM512 1024h410v205q0 85 -60 145t-145 60t-145 -60t-60 -145v-205zM530 2007h232l137 -262h-231z" />
<glyph unicode="&#xc1;" d="M102 1024h205v205q0 169 120.5 289t289.5 120t289 -120t120 -289v-1229h-204v819h-410v-819h-205v819h-98zM512 1024h410v205q0 85 -60 145t-145 60t-145 -60t-60 -145v-205zM528 1741l138 262h231l-137 -262h-232z" />
<glyph unicode="&#xc2;" d="M102 1024h205v205q0 169 120.5 289t289.5 120t289 -120t120 -289v-1229h-204v819h-410v-819h-205v819h-98zM410 1741l204 237h205l205 -237h-238l-69 102l-76 -102h-231zM512 1024h410v205q0 85 -60 145t-145 60t-145 -60t-60 -145v-205z" />
<glyph unicode="&#xc3;" d="M102 1024h205v205q0 169 120.5 289t289.5 120t289 -120t120 -289v-1229h-204v819h-410v-819h-205v819h-98zM436 1735q18 103 71 165t128 62q36 0 96 -34t80 -34q18 0 27 70h163q-30 -227 -186 -227q-48 0 -186 63q-22 -11 -33 -65h-160zM512 1024h410v205q0 85 -60 145 t-145 60t-145 -60t-60 -145v-205z" />
<glyph unicode="&#xc4;" d="M102 1024h205v205q0 169 120.5 289t289.5 120t289 -120t120 -289v-1229h-204v819h-410v-819h-205v819h-98zM410 1909q0 37 8 61h186q10 -30 10 -61q0 -62 -29.5 -105t-72.5 -43t-72.5 43t-29.5 105zM512 1024h410v205q0 85 -60 145t-145 60t-145 -60t-60 -145v-205z M819 1909q0 37 8 61h187q10 -30 10 -61q0 -62 -29.5 -105t-72.5 -43t-73 43.5t-30 104.5z" />
<glyph unicode="&#xc5;" d="M102 1024h205v205q0 98 43.5 183t118.5 142q-59 81 -59 185q0 127 90 217t217 90t217 -90t90 -217q0 -105 -61 -185q75 -57 119 -142t44 -183v-1229h-204v819h-410v-819h-205v819h-98zM512 1024h410v205q0 77 -52.5 135.5t-128.5 67.5h-49q-77 -9 -128.5 -67t-51.5 -136 v-205zM614 1739q0 -38 23.5 -66.5t58.5 -34.5h39q36 6 60 34.5t24 66.5q0 43 -29.5 72.5t-72.5 29.5t-73 -29.5t-30 -72.5z" />
<glyph unicode="&#xc6;" horiz-adv-x="1642" d="M102 1024h205v205q0 169 121 289t293 120h819v-204h-614v-410h409v-205h-409v-614h614v-205h-819v819h-209v-819h-205v819h-98zM512 1024h209v410q-85 0 -147 -60.5t-62 -144.5v-205z" />
<glyph unicode="&#xc7;" horiz-adv-x="1167" d="M102 819q0 167 65 318.5t174.5 261t261.5 174.5t319 65q72 0 143 -12v-209q-80 17 -143 17q-125 0 -239 -48.5t-196.5 -131t-131 -196.5t-48.5 -239t48.5 -239t131 -196t196.5 -130.5t239 -48.5q80 0 143 16v-209q-71 -12 -143 -12h-103q0 -128 -89.5 -217.5 t-217.5 -89.5q-27 0 -41 2v211q16 -8 41 -8q43 0 72.5 29.5t29.5 72.5v59q-229 92 -370.5 298.5t-141.5 461.5z" />
<glyph unicode="&#xc8;" d="M102 1024h205v614h819v-204h-614v-410h410v-205h-410v-614h614v-205h-819v819h-102zM453 2003h231l137 -262h-231z" />
<glyph unicode="&#xc9;" d="M102 1024h205v614h819v-204h-614v-410h410v-205h-410v-614h614v-205h-819v819h-102zM430 1741l137 262h232l-137 -262h-232z" />
<glyph unicode="&#xca;" d="M102 1024h205v614h819v-204h-614v-410h410v-205h-410v-614h614v-205h-819v819h-102zM410 1737l204 237h205l205 -237h-238l-69 102l-76 -102h-231z" />
<glyph unicode="&#xcb;" d="M102 1024h205v614h819v-204h-614v-410h410v-205h-410v-614h614v-205h-819v819h-102zM410 1892q0 38 8 62h186q10 -30 10 -62q0 -62 -29.5 -104.5t-72.5 -42.5t-72.5 42.5t-29.5 104.5zM819 1892q0 38 8 62h187q10 -30 10 -62q0 -62 -29.5 -104.5t-72.5 -42.5t-73 43 t-30 104z" />
<glyph unicode="&#xcc;" horiz-adv-x="409" d="M20 2003h232l137 -262h-231zM102 0v1638h205v-1638h-205z" />
<glyph unicode="&#xcd;" horiz-adv-x="409" d="M20 1741l138 262h231l-137 -262h-232zM102 0v1638h205v-1638h-205z" />
<glyph unicode="&#xce;" horiz-adv-x="409" d="M-102 1737l204 237h205l205 -237h-238l-69 102l-76 -102h-231zM102 0v1638h205v-1638h-205z" />
<glyph unicode="&#xcf;" horiz-adv-x="409" d="M-102 1888q0 38 8 62h186q10 -30 10 -62q0 -62 -29.5 -104.5t-72.5 -42.5t-72.5 42.5t-29.5 104.5zM102 0v1638h205v-1638h-205zM307 1888q0 38 8 62h187q10 -30 10 -62q0 -62 -29.5 -104.5t-72.5 -42.5t-73 43t-30 104z" />
<glyph unicode="&#xd0;" horiz-adv-x="1495" d="M102 1024h205v614h266q167 0 319 -65t261.5 -174.5t174.5 -261t65 -318.5t-65 -318.5t-174.5 -261t-261.5 -174.5t-319 -65h-266v819h-102zM512 205h61q125 0 239 48.5t196.5 130.5t131 196t48.5 239t-48.5 239t-131 196.5t-196.5 131t-239 48.5l-61 -2v-408h102 l103 -205h-205v-614z" />
<glyph unicode="&#xd1;" horiz-adv-x="1024" d="M102 0v1638l615 -526v526h205v-1638h-205v844l-410 350v-1194h-205zM231 1739q18 103 71 165t128 62q36 0 96 -34t80 -34q18 0 27 70h164q-30 -227 -187 -227q-48 0 -186 63q-22 -11 -33 -65h-160z" />
<glyph unicode="&#xd2;" horiz-adv-x="1843" d="M102 819q0 167 65 318.5t174.5 261t261.5 174.5t319 65t318.5 -65t261 -174.5t174.5 -261t65 -318.5t-65 -318.5t-174.5 -261t-261 -174.5t-318.5 -65t-319 65t-261.5 174.5t-174.5 261t-65 318.5zM307 819q0 -125 48.5 -239t131 -196t196.5 -130.5t239 -48.5 q167 0 308.5 82t223.5 223.5t82 308.5q0 125 -48.5 239t-130.5 196.5t-196 131t-239 48.5t-239 -48.5t-196.5 -131t-131 -196.5t-48.5 -239zM737 2003h232l137 -262h-232z" />
<glyph unicode="&#xd3;" horiz-adv-x="1843" d="M102 819q0 167 65 318.5t174.5 261t261.5 174.5t319 65t318.5 -65t261 -174.5t174.5 -261t65 -318.5t-65 -318.5t-174.5 -261t-261 -174.5t-318.5 -65t-319 65t-261.5 174.5t-174.5 261t-65 318.5zM307 819q0 -125 48.5 -239t131 -196t196.5 -130.5t239 -48.5 q167 0 308.5 82t223.5 223.5t82 308.5q0 125 -48.5 239t-130.5 196.5t-196 131t-239 48.5t-239 -48.5t-196.5 -131t-131 -196.5t-48.5 -239zM737 1741l137 262h232l-137 -262h-232z" />
<glyph unicode="&#xd4;" horiz-adv-x="1843" d="M102 819q0 167 65 318.5t174.5 261t261.5 174.5t319 65t318.5 -65t261 -174.5t174.5 -261t65 -318.5t-65 -318.5t-174.5 -261t-261 -174.5t-318.5 -65t-319 65t-261.5 174.5t-174.5 261t-65 318.5zM307 819q0 -125 48.5 -239t131 -196t196.5 -130.5t239 -48.5 q167 0 308.5 82t223.5 223.5t82 308.5q0 125 -48.5 239t-130.5 196.5t-196 131t-239 48.5t-239 -48.5t-196.5 -131t-131 -196.5t-48.5 -239zM614 1741l205 237h205l205 -237h-238l-69 102l-76 -102h-232z" />
<glyph unicode="&#xd5;" horiz-adv-x="1843" d="M102 819q0 167 65 318.5t174.5 261t261.5 174.5t319 65t318.5 -65t261 -174.5t174.5 -261t65 -318.5t-65 -318.5t-174.5 -261t-261 -174.5t-318.5 -65t-319 65t-261.5 174.5t-174.5 261t-65 318.5zM307 819q0 -125 48.5 -239t131 -196t196.5 -130.5t239 -48.5 q167 0 308.5 82t223.5 223.5t82 308.5q0 125 -48.5 239t-130.5 196.5t-196 131t-239 48.5t-239 -48.5t-196.5 -131t-131 -196.5t-48.5 -239zM639 1743q18 103 71 165t128 62q36 0 96 -33.5t80 -33.5q17 0 26 69h164q-30 -227 -186 -227q-49 0 -187 63q-21 -10 -32 -65h-160z " />
<glyph unicode="&#xd6;" horiz-adv-x="1843" d="M102 819q0 167 65 318.5t174.5 261t261.5 174.5t319 65t318.5 -65t261 -174.5t174.5 -261t65 -318.5t-65 -318.5t-174.5 -261t-261 -174.5t-318.5 -65t-319 65t-261.5 174.5t-174.5 261t-65 318.5zM307 819q0 -125 48.5 -239t131 -196t196.5 -130.5t239 -48.5 q167 0 308.5 82t223.5 223.5t82 308.5q0 125 -48.5 239t-130.5 196.5t-196 131t-239 48.5t-239 -48.5t-196.5 -131t-131 -196.5t-48.5 -239zM614 1888q0 35 9 62h186q10 -30 10 -62q0 -62 -29.5 -104.5t-72.5 -42.5t-73 43t-30 104zM1024 1888q0 38 8 62h187q10 -30 10 -62 q0 -61 -30 -104t-73 -43t-72.5 42.5t-29.5 104.5z" />
<glyph unicode="&#xd8;" horiz-adv-x="1843" d="M102 819q0 167 65 318.5t174.5 261t261.5 174.5t319 65q126 0 229 -32l14 32h224l-52 -114q185 -109 294.5 -296.5t109.5 -408.5q0 -167 -65 -318.5t-174.5 -261t-261 -174.5t-318.5 -65q-118 0 -230 31l-14 -31h-223l49 115q-184 107 -293 294.5t-109 409.5zM307 819 q0 -160 75 -295.5t204 -220.5l483 1112q-74 19 -147 19q-125 0 -239 -48.5t-196.5 -131t-131 -196.5t-48.5 -239zM774 221q75 -16 148 -16q167 0 308.5 82t223.5 223.5t82 308.5q0 158 -76 294.5t-205 219.5z" />
<glyph unicode="&#xd9;" horiz-adv-x="1024" d="M102 410v1228h205v-1228q0 -85 60 -145t145 -60t145 60t60 145v1228h205v-1228q0 -169 -120.5 -289.5t-289.5 -120.5t-289.5 120.5t-120.5 289.5zM328 2003h231l137 -262h-231z" />
<glyph unicode="&#xda;" horiz-adv-x="1024" d="M102 410v1228h205v-1228q0 -85 60 -145t145 -60t145 60t60 145v1228h205v-1228q0 -169 -120.5 -289.5t-289.5 -120.5t-289.5 120.5t-120.5 289.5zM328 1741l137 262h231l-137 -262h-231z" />
<glyph unicode="&#xdb;" horiz-adv-x="1024" d="M102 410v1228h205v-1228q0 -85 60 -145t145 -60t145 60t60 145v1228h205v-1228q0 -169 -120.5 -289.5t-289.5 -120.5t-289.5 120.5t-120.5 289.5zM205 1741l205 237h204l205 -237h-237l-70 102l-76 -102h-231z" />
<glyph unicode="&#xdc;" horiz-adv-x="1024" d="M102 410v1228h205v-1228q0 -85 60 -145t145 -60t145 60t60 145v1228h205v-1228q0 -169 -120.5 -289.5t-289.5 -120.5t-289.5 120.5t-120.5 289.5zM205 1888q0 38 8 62h186q11 -33 11 -62q0 -61 -30 -104t-73 -43t-72.5 42.5t-29.5 104.5zM614 1888q0 35 9 62h186 q10 -30 10 -62q0 -62 -29.5 -104.5t-72.5 -42.5t-73 43t-30 104z" />
<glyph unicode="&#xdd;" horiz-adv-x="1275" d="M102 1638h236l289 -548l313 548h234l-445 -809v-829h-205v836zM453 1741l137 262h231l-137 -262h-231z" />
<glyph unicode="&#xde;" horiz-adv-x="1224" d="M102 1024h205v614h205v-614h201q169 0 289 -119.5t120 -288.5q0 -110 -54.5 -204t-147.5 -150t-203 -57h-205v-205h-205v819h-102zM512 410h201q85 0 145 60.5t60 145.5t-59 144t-142 59h-205v-409z" />
<glyph unicode="&#xdf;" horiz-adv-x="1331" d="M102 0v1229q0 169 121 289t293 120q14 0 39 -2q156 -19 262.5 -134t106.5 -273q0 -121 -68 -225q163 -45 268 -182t105 -310q0 -212 -150 -362t-362 -150h-99v205h103q126 2 214.5 91t88.5 216q0 128 -90 217.5t-217 89.5h-99v232q46 29 73.5 76t27.5 102 q-5 82 -62.5 143t-144.5 62q-85 0 -145 -60t-60 -145v-1229h-205z" />
<glyph unicode="&#xe0;" d="M102 1024h205v205q0 169 120.5 289t289.5 120t289 -120t120 -289v-1229h-204v819h-410v-819h-205v819h-98zM512 1024h410v205q0 85 -60 145t-145 60t-145 -60t-60 -145v-205zM530 2007h232l137 -262h-231z" />
<glyph unicode="&#xe1;" d="M102 1024h205v205q0 169 120.5 289t289.5 120t289 -120t120 -289v-1229h-204v819h-410v-819h-205v819h-98zM512 1024h410v205q0 85 -60 145t-145 60t-145 -60t-60 -145v-205zM528 1741l138 262h231l-137 -262h-232z" />
<glyph unicode="&#xe2;" d="M102 1024h205v205q0 169 120.5 289t289.5 120t289 -120t120 -289v-1229h-204v819h-410v-819h-205v819h-98zM410 1741l204 237h205l205 -237h-238l-69 102l-76 -102h-231zM512 1024h410v205q0 85 -60 145t-145 60t-145 -60t-60 -145v-205z" />
<glyph unicode="&#xe3;" d="M102 1024h205v205q0 169 120.5 289t289.5 120t289 -120t120 -289v-1229h-204v819h-410v-819h-205v819h-98zM436 1735q18 103 71 165t128 62q36 0 96 -34t80 -34q18 0 27 70h163q-30 -227 -186 -227q-48 0 -186 63q-22 -11 -33 -65h-160zM512 1024h410v205q0 85 -60 145 t-145 60t-145 -60t-60 -145v-205z" />
<glyph unicode="&#xe4;" d="M102 1024h205v205q0 169 120.5 289t289.5 120t289 -120t120 -289v-1229h-204v819h-410v-819h-205v819h-98zM410 1909q0 37 8 61h186q10 -30 10 -61q0 -62 -29.5 -105t-72.5 -43t-72.5 43t-29.5 105zM512 1024h410v205q0 85 -60 145t-145 60t-145 -60t-60 -145v-205z M819 1909q0 37 8 61h187q10 -30 10 -61q0 -62 -29.5 -105t-72.5 -43t-73 43.5t-30 104.5z" />
<glyph unicode="&#xe5;" d="M102 1024h205v205q0 98 43.5 183t118.5 142q-59 81 -59 185q0 127 90 217t217 90t217 -90t90 -217q0 -105 -61 -185q75 -57 119 -142t44 -183v-1229h-204v819h-410v-819h-205v819h-98zM512 1024h410v205q0 77 -52.5 135.5t-128.5 67.5h-49q-77 -9 -128.5 -67t-51.5 -136 v-205zM614 1739q0 -38 23.5 -66.5t58.5 -34.5h39q36 6 60 34.5t24 66.5q0 43 -29.5 72.5t-72.5 29.5t-73 -29.5t-30 -72.5z" />
<glyph unicode="&#xe6;" horiz-adv-x="1642" d="M102 1024h205v205q0 169 121 289t293 120h819v-204h-614v-410h409v-205h-409v-614h614v-205h-819v819h-209v-819h-205v819h-98zM512 1024h209v410q-85 0 -147 -60.5t-62 -144.5v-205z" />
<glyph unicode="&#xe7;" horiz-adv-x="1167" d="M102 819q0 167 65 318.5t174.5 261t261.5 174.5t319 65q72 0 143 -12v-209q-80 17 -143 17q-125 0 -239 -48.5t-196.5 -131t-131 -196.5t-48.5 -239t48.5 -239t131 -196t196.5 -130.5t239 -48.5q80 0 143 16v-209q-71 -12 -143 -12h-103q0 -128 -89.5 -217.5 t-217.5 -89.5q-27 0 -41 2v211q16 -8 41 -8q43 0 72.5 29.5t29.5 72.5v59q-229 92 -370.5 298.5t-141.5 461.5z" />
<glyph unicode="&#xe8;" d="M102 1024h205v614h819v-204h-614v-410h410v-205h-410v-614h614v-205h-819v819h-102zM453 2003h231l137 -262h-231z" />
<glyph unicode="&#xe9;" d="M102 1024h205v614h819v-204h-614v-410h410v-205h-410v-614h614v-205h-819v819h-102zM430 1741l137 262h232l-137 -262h-232z" />
<glyph unicode="&#xea;" d="M102 1024h205v614h819v-204h-614v-410h410v-205h-410v-614h614v-205h-819v819h-102zM410 1737l204 237h205l205 -237h-238l-69 102l-76 -102h-231z" />
<glyph unicode="&#xeb;" d="M102 1024h205v614h819v-204h-614v-410h410v-205h-410v-614h614v-205h-819v819h-102zM410 1892q0 38 8 62h186q10 -30 10 -62q0 -62 -29.5 -104.5t-72.5 -42.5t-72.5 42.5t-29.5 104.5zM819 1892q0 38 8 62h187q10 -30 10 -62q0 -62 -29.5 -104.5t-72.5 -42.5t-73 43 t-30 104z" />
<glyph unicode="&#xec;" horiz-adv-x="409" d="M20 2003h232l137 -262h-231zM102 0v1638h205v-1638h-205z" />
<glyph unicode="&#xed;" horiz-adv-x="409" d="M20 1741l138 262h231l-137 -262h-232zM102 0v1638h205v-1638h-205z" />
<glyph unicode="&#xee;" horiz-adv-x="409" d="M-102 1737l204 237h205l205 -237h-238l-69 102l-76 -102h-231zM102 0v1638h205v-1638h-205z" />
<glyph unicode="&#xef;" horiz-adv-x="409" d="M-102 1888q0 38 8 62h186q10 -30 10 -62q0 -62 -29.5 -104.5t-72.5 -42.5t-72.5 42.5t-29.5 104.5zM102 0v1638h205v-1638h-205zM307 1888q0 38 8 62h187q10 -30 10 -62q0 -62 -29.5 -104.5t-72.5 -42.5t-73 43t-30 104z" />
<glyph unicode="&#xf0;" horiz-adv-x="1495" d="M102 1024h205v614h266q167 0 319 -65t261.5 -174.5t174.5 -261t65 -318.5t-65 -318.5t-174.5 -261t-261.5 -174.5t-319 -65h-266v819h-102zM512 205h61q125 0 239 48.5t196.5 130.5t131 196t48.5 239t-48.5 239t-131 196.5t-196.5 131t-239 48.5l-61 -2v-408h102 l103 -205h-205v-614z" />
<glyph unicode="&#xf1;" horiz-adv-x="1024" d="M102 0v1638l615 -526v526h205v-1638h-205v844l-410 350v-1194h-205zM231 1739q18 103 71 165t128 62q36 0 96 -34t80 -34q18 0 27 70h164q-30 -227 -187 -227q-48 0 -186 63q-22 -11 -33 -65h-160z" />
<glyph unicode="&#xf2;" horiz-adv-x="1843" d="M102 819q0 167 65 318.5t174.5 261t261.5 174.5t319 65t318.5 -65t261 -174.5t174.5 -261t65 -318.5t-65 -318.5t-174.5 -261t-261 -174.5t-318.5 -65t-319 65t-261.5 174.5t-174.5 261t-65 318.5zM307 819q0 -125 48.5 -239t131 -196t196.5 -130.5t239 -48.5 q167 0 308.5 82t223.5 223.5t82 308.5q0 125 -48.5 239t-130.5 196.5t-196 131t-239 48.5t-239 -48.5t-196.5 -131t-131 -196.5t-48.5 -239zM737 2003h232l137 -262h-232z" />
<glyph unicode="&#xf3;" horiz-adv-x="1843" d="M102 819q0 167 65 318.5t174.5 261t261.5 174.5t319 65t318.5 -65t261 -174.5t174.5 -261t65 -318.5t-65 -318.5t-174.5 -261t-261 -174.5t-318.5 -65t-319 65t-261.5 174.5t-174.5 261t-65 318.5zM307 819q0 -125 48.5 -239t131 -196t196.5 -130.5t239 -48.5 q167 0 308.5 82t223.5 223.5t82 308.5q0 125 -48.5 239t-130.5 196.5t-196 131t-239 48.5t-239 -48.5t-196.5 -131t-131 -196.5t-48.5 -239zM737 1741l137 262h232l-137 -262h-232z" />
<glyph unicode="&#xf4;" horiz-adv-x="1843" d="M102 819q0 167 65 318.5t174.5 261t261.5 174.5t319 65t318.5 -65t261 -174.5t174.5 -261t65 -318.5t-65 -318.5t-174.5 -261t-261 -174.5t-318.5 -65t-319 65t-261.5 174.5t-174.5 261t-65 318.5zM307 819q0 -125 48.5 -239t131 -196t196.5 -130.5t239 -48.5 q167 0 308.5 82t223.5 223.5t82 308.5q0 125 -48.5 239t-130.5 196.5t-196 131t-239 48.5t-239 -48.5t-196.5 -131t-131 -196.5t-48.5 -239zM614 1741l205 237h205l205 -237h-238l-69 102l-76 -102h-232z" />
<glyph unicode="&#xf5;" horiz-adv-x="1843" d="M102 819q0 167 65 318.5t174.5 261t261.5 174.5t319 65t318.5 -65t261 -174.5t174.5 -261t65 -318.5t-65 -318.5t-174.5 -261t-261 -174.5t-318.5 -65t-319 65t-261.5 174.5t-174.5 261t-65 318.5zM307 819q0 -125 48.5 -239t131 -196t196.5 -130.5t239 -48.5 q167 0 308.5 82t223.5 223.5t82 308.5q0 125 -48.5 239t-130.5 196.5t-196 131t-239 48.5t-239 -48.5t-196.5 -131t-131 -196.5t-48.5 -239zM639 1743q18 103 71 165t128 62q36 0 96 -33.5t80 -33.5q17 0 26 69h164q-30 -227 -186 -227q-49 0 -187 63q-21 -10 -32 -65h-160z " />
<glyph unicode="&#xf6;" horiz-adv-x="1843" d="M102 819q0 167 65 318.5t174.5 261t261.5 174.5t319 65t318.5 -65t261 -174.5t174.5 -261t65 -318.5t-65 -318.5t-174.5 -261t-261 -174.5t-318.5 -65t-319 65t-261.5 174.5t-174.5 261t-65 318.5zM307 819q0 -125 48.5 -239t131 -196t196.5 -130.5t239 -48.5 q167 0 308.5 82t223.5 223.5t82 308.5q0 125 -48.5 239t-130.5 196.5t-196 131t-239 48.5t-239 -48.5t-196.5 -131t-131 -196.5t-48.5 -239zM614 1888q0 35 9 62h186q10 -30 10 -62q0 -62 -29.5 -104.5t-72.5 -42.5t-73 43t-30 104zM1024 1888q0 38 8 62h187q10 -30 10 -62 q0 -61 -30 -104t-73 -43t-72.5 42.5t-29.5 104.5z" />
<glyph unicode="&#xf8;" horiz-adv-x="1843" d="M102 819q0 167 65 318.5t174.5 261t261.5 174.5t319 65q126 0 229 -32l14 32h224l-52 -114q185 -109 294.5 -296.5t109.5 -408.5q0 -167 -65 -318.5t-174.5 -261t-261 -174.5t-318.5 -65q-118 0 -230 31l-14 -31h-223l49 115q-184 107 -293 294.5t-109 409.5zM307 819 q0 -160 75 -295.5t204 -220.5l483 1112q-74 19 -147 19q-125 0 -239 -48.5t-196.5 -131t-131 -196.5t-48.5 -239zM774 221q75 -16 148 -16q167 0 308.5 82t223.5 223.5t82 308.5q0 158 -76 294.5t-205 219.5z" />
<glyph unicode="&#xf9;" horiz-adv-x="1024" d="M102 410v1228h205v-1228q0 -85 60 -145t145 -60t145 60t60 145v1228h205v-1228q0 -169 -120.5 -289.5t-289.5 -120.5t-289.5 120.5t-120.5 289.5zM328 2003h231l137 -262h-231z" />
<glyph unicode="&#xfa;" horiz-adv-x="1024" d="M102 410v1228h205v-1228q0 -85 60 -145t145 -60t145 60t60 145v1228h205v-1228q0 -169 -120.5 -289.5t-289.5 -120.5t-289.5 120.5t-120.5 289.5zM328 1741l137 262h231l-137 -262h-231z" />
<glyph unicode="&#xfb;" horiz-adv-x="1024" d="M102 410v1228h205v-1228q0 -85 60 -145t145 -60t145 60t60 145v1228h205v-1228q0 -169 -120.5 -289.5t-289.5 -120.5t-289.5 120.5t-120.5 289.5zM205 1741l205 237h204l205 -237h-237l-70 102l-76 -102h-231z" />
<glyph unicode="&#xfc;" horiz-adv-x="1024" d="M102 410v1228h205v-1228q0 -85 60 -145t145 -60t145 60t60 145v1228h205v-1228q0 -169 -120.5 -289.5t-289.5 -120.5t-289.5 120.5t-120.5 289.5zM205 1888q0 38 8 62h186q11 -33 11 -62q0 -61 -30 -104t-73 -43t-72.5 42.5t-29.5 104.5zM614 1888q0 35 9 62h186 q10 -30 10 -62q0 -62 -29.5 -104.5t-72.5 -42.5t-73 43t-30 104z" />
<glyph unicode="&#xfd;" horiz-adv-x="1275" d="M102 1638h236l289 -548l313 548h234l-445 -809v-829h-205v836zM453 1741l137 262h231l-137 -262h-231z" />
<glyph unicode="&#xfe;" horiz-adv-x="1224" d="M102 1024h205v614h205v-614h201q169 0 289 -119.5t120 -288.5q0 -110 -54.5 -204t-147.5 -150t-203 -57h-205v-205h-205v819h-102zM512 410h201q85 0 145 60.5t60 145.5t-59 144t-142 59h-205v-409z" />
<glyph unicode="&#xff;" horiz-adv-x="1275" d="M102 1638h236l289 -548l313 548h234l-445 -809v-829h-205v836zM330 1888q0 38 8 62h186q11 -33 11 -62q0 -61 -30 -104t-73 -43t-72.5 42.5t-29.5 104.5zM739 1888q0 35 9 62h186q10 -30 10 -62q0 -62 -29.5 -104.5t-72.5 -42.5t-73 43t-30 104z" />
<glyph unicode="&#x152;" horiz-adv-x="1843" d="M102 819q0 167 65 318.5t174.5 261t261.5 174.5t319 65q8 0 24.5 -1t24.5 -1h770v-204h-615v-410h410v-205h-410v-614h615v-205h-819v2q-167 0 -319 65t-261.5 174.5t-174.5 261t-65 318.5zM307 819q0 -125 48.5 -239t131 -196t196.5 -130.5t239 -48.5v612h-103l-102 205 h205v412q-125 0 -239 -48.5t-196.5 -131t-131 -196.5t-48.5 -239z" />
<glyph unicode="&#x153;" horiz-adv-x="1843" d="M102 819q0 167 65 318.5t174.5 261t261.5 174.5t319 65q8 0 24.5 -1t24.5 -1h770v-204h-615v-410h410v-205h-410v-614h615v-205h-819v2q-167 0 -319 65t-261.5 174.5t-174.5 261t-65 318.5zM307 819q0 -125 48.5 -239t131 -196t196.5 -130.5t239 -48.5v612h-103l-102 205 h205v412q-125 0 -239 -48.5t-196.5 -131t-131 -196.5t-48.5 -239z" />
<glyph unicode="&#x178;" horiz-adv-x="1275" d="M102 1638h236l289 -548l313 548h234l-445 -809v-829h-205v836zM330 1888q0 38 8 62h186q11 -33 11 -62q0 -61 -30 -104t-73 -43t-72.5 42.5t-29.5 104.5zM739 1888q0 35 9 62h186q10 -30 10 -62q0 -62 -29.5 -104.5t-72.5 -42.5t-73 43t-30 104z" />
<glyph unicode="&#x2000;" horiz-adv-x="1023" />
<glyph unicode="&#x2001;" horiz-adv-x="2046" />
<glyph unicode="&#x2002;" horiz-adv-x="1023" />
<glyph unicode="&#x2003;" horiz-adv-x="2046" />
<glyph unicode="&#x2004;" horiz-adv-x="682" />
<glyph unicode="&#x2005;" horiz-adv-x="511" />
<glyph unicode="&#x2006;" horiz-adv-x="341" />
<glyph unicode="&#x2007;" horiz-adv-x="341" />
<glyph unicode="&#x2008;" horiz-adv-x="255" />
<glyph unicode="&#x2009;" horiz-adv-x="409" />
<glyph unicode="&#x200a;" horiz-adv-x="113" />
<glyph unicode="&#x2010;" horiz-adv-x="1024" d="M102 715v205h820v-205h-820z" />
<glyph unicode="&#x2011;" horiz-adv-x="1024" d="M102 715v205h820v-205h-820z" />
<glyph unicode="&#x2012;" horiz-adv-x="1024" d="M102 715v205h820v-205h-820z" />
<glyph unicode="&#x2013;" d="M102 715v205h1024v-205h-1024z" />
<glyph unicode="&#x2014;" horiz-adv-x="2252" d="M102 715v205h2048v-205h-2048z" />
<glyph unicode="&#x2018;" horiz-adv-x="497" d="M102 1343q0 121 85 207t206 86v-82q-105 -16 -162 -84q68 0 116 -39.5t48 -107.5q0 -60 -43 -102.5t-102 -42.5q-73 0 -110.5 46t-37.5 119z" />
<glyph unicode="&#x2019;" horiz-adv-x="497" d="M102 1491q0 60 43.5 102.5t102.5 42.5q73 0 110 -46.5t37 -119.5q0 -120 -85 -206t-206 -86v82q105 16 162 83q-68 0 -116 40t-48 108z" />
<glyph unicode="&#x201a;" horiz-adv-x="497" d="M102 147q0 60 43.5 103t102.5 43q73 0 110 -46.5t37 -119.5q0 -121 -85 -207t-206 -86v82q105 16 162 84q-68 0 -116 39.5t-48 107.5z" />
<glyph unicode="&#x201c;" horiz-adv-x="892" d="M102 1343q0 121 85 207t206 86v-82q-105 -16 -162 -84q68 0 116 -39.5t48 -107.5q0 -60 -43 -102.5t-102 -42.5q-73 0 -110.5 46t-37.5 119zM498 1343q0 121 84.5 207t205.5 86v-82q-103 -16 -161 -84q68 0 116 -39.5t48 -107.5q0 -60 -43.5 -102.5t-102.5 -42.5 q-73 0 -110 46t-37 119z" />
<glyph unicode="&#x201d;" horiz-adv-x="892" d="M102 1491q0 60 43.5 102.5t102.5 42.5q73 0 110 -46.5t37 -119.5q0 -120 -85 -206t-206 -86v82q105 16 162 83q-68 0 -116 40t-48 108zM498 1491q0 60 43 102.5t102 42.5q73 0 110.5 -46.5t37.5 -119.5q0 -120 -85 -206t-206 -86v82q105 16 162 83q-68 0 -116 40t-48 108 z" />
<glyph unicode="&#x201e;" horiz-adv-x="892" d="M102 147q0 60 43.5 103t102.5 43q73 0 110 -46.5t37 -119.5q0 -121 -85 -207t-206 -86v82q105 16 162 84q-68 0 -116 39.5t-48 107.5zM498 147q0 60 43 103t102 43q73 0 110.5 -46.5t37.5 -119.5q0 -121 -85 -207t-206 -86v82q105 16 162 84q-68 0 -116 39.5t-48 107.5z " />
<glyph unicode="&#x2026;" d="M102 102q0 43 30 73t73 30t72.5 -30t29.5 -73t-29.5 -72.5t-72.5 -29.5t-73 29.5t-30 72.5zM512 102q0 43 29.5 73t72.5 30t73 -30t30 -73t-30 -72.5t-73 -29.5t-72.5 29.5t-29.5 72.5zM922 102q0 43 29.5 73t72.5 30t72.5 -30t29.5 -73t-29.5 -72.5t-72.5 -29.5 t-72.5 29.5t-29.5 72.5z" />
<glyph unicode="&#x202f;" horiz-adv-x="409" />
<glyph unicode="&#x2039;" horiz-adv-x="700" d="M102 684v270l496 275v-246l-303 -164l303 -172v-237z" />
<glyph unicode="&#x203a;" horiz-adv-x="700" d="M102 410v237l304 172l-304 164v246l496 -275v-270z" />
<glyph unicode="&#x205f;" horiz-adv-x="511" />
<glyph unicode="&#x20ac;" horiz-adv-x="1372" d="M102 717h211q-6 49 -6 102h-102l-103 205h230q70 267 290 440.5t504 173.5q74 0 144 -12v-209q-80 17 -144 17q-198 0 -356.5 -114.5t-222.5 -295.5h477l102 -205h-614q0 -58 8 -102h299l103 -205h-328q81 -141 222 -224t310 -83q81 0 144 16v-209q-70 -12 -144 -12 q-255 0 -461 141.5t-298 370.5h-162z" />
<glyph unicode="&#x25fc;" horiz-adv-x="1638" d="M0 0v1638h1638v-1638h-1638z" />
</font>
</defs>
</svg>
