<svg id="Capa_1" data-name="Capa 1" xmlns="http://www.w3.org/2000/svg" viewBox="0 0 50.87 44.64"><defs><style>.cls-1{fill:#fff;}</style></defs><path class="cls-1" d="M844.29,1378.07v-7.68a1.9,1.9,0,1,1,3.8,0v7.68Zm0,7.4v25.75a1.9,1.9,0,1,0,3.8,0v-25.75Zm7.56-5.58H840.53a1.84,1.84,0,1,0,0,3.67h11.32a1.84,1.84,0,1,0,0-3.67m10.38,23.66v7.67a1.9,1.9,0,1,0,3.8,0v-7.67Zm3.8-7.41v-25.75a1.9,1.9,0,1,0-3.8,0v25.75Zm3.76,1.91H858.47a1.84,1.84,0,1,0,0,3.67h11.32a1.84,1.84,0,0,0,0-3.67M884,1381.46v-11.07a1.9,1.9,0,0,0-1.9-1.9h0a1.9,1.9,0,0,0-1.9,1.9v11.07Zm-3.8,8v21.72a1.9,1.9,0,0,0,1.9,1.91h0a1.9,1.9,0,0,0,1.9-1.91V1389.5Zm7.56-5.82H876.41a1.84,1.84,0,1,0,0,3.67h11.32a1.84,1.84,0,0,0,0-3.67" transform="translate(-838.69 -1368.49)"/></svg>