<svg xmlns="http://www.w3.org/2000/svg" viewBox="0 0 38.72 38.72"><defs><style>.cls-1{fill:#509fff;}</style></defs><g id="Capa_2" data-name="Capa 2"><g id="Capa_1-2" data-name="Capa 1"><path class="cls-1" d="M16.53,10.4a1.72,1.72,0,0,1,1.29,2.86L14,17.64H28.72a1.72,1.72,0,1,1,0,3.44H13.89l3.67,4.42A1.72,1.72,0,0,1,15,27.74l-6.24-7.1a1.73,1.73,0,0,1,0-2.28L15.24,11a1.69,1.69,0,0,1,1.29-.58"/><path class="cls-1" d="M19.36,35.28A15.92,15.92,0,1,1,35.28,19.36,15.94,15.94,0,0,1,19.36,35.28m0,3.44A19.36,19.36,0,1,0,0,19.36,19.36,19.36,0,0,0,19.36,38.72"/></g></g></svg>