<svg xmlns="http://www.w3.org/2000/svg" viewBox="0 0 116.99 59.21"><defs><style>.cls-1{fill:#fff;}</style></defs><g id="Capa_2" data-name="Capa 2"><g id="Capa_1-2" data-name="Capa 1"><path class="cls-1" d="M117,59.17a1,1,0,0,1-.38,0h-5.47a.5.5,0,0,1-.56-.35c-.27-.75-.56-1.49-.85-2.22L109,54.72c-.31-.77-.6-1.54-.9-2.31l-1-2.57c-.36-.92-.71-1.85-1.07-2.77l-1-2.56c-.36-.93-.71-1.85-1.07-2.77l-1-2.57c-.36-.92-.71-1.85-1.07-2.77l-1-2.56q-.23-.56-.42-1.11c0-.06,0-.13-.09-.14s-.09.07-.11.12l-.48,1.19L98.09,38q-1.2,3-2.38,6c-.53,1.32-1,2.65-1.58,4-.39,1-.78,1.94-1.15,2.92a.36.36,0,0,1-.38.27c-1.89,0-3.78,0-5.66,0h-.18c-.1,0-.11-.06-.11-.14a1.09,1.09,0,0,1,0-.17c.27-.78.59-1.55.87-2.32s.5-1.33.73-2,.51-1.33.77-2l.47-1.28c.28-.73.56-1.46.83-2.19s.45-1.25.69-1.87.55-1.44.82-2.16c.15-.41.31-.81.46-1.22.29-.82.61-1.63.91-2.46Q94.09,31,95,28.75c.1-.28.1-.29.47-.29h9.73c.31,0,.32,0,.43.3L106.81,32l1.53,4.07c.47,1.26,1,2.52,1.42,3.77L111.31,44c.39,1.06.79,2.12,1.19,3.17.52,1.37,1,2.74,1.54,4.11l1.38,3.68c.51,1.36,1,2.73,1.55,4.1a1.23,1.23,0,0,1,0,.13"/><path class="cls-1" d="M101.48.67c.24.79.56,1.54.84,2.31.42,1.16.86,2.31,1.29,3.46l1.87,5c.21.56.42,1.12.61,1.68a.7.7,0,0,0,.47.49c.87.29,1.73.6,2.59.92l4.34,1.57h.11v.14l-1.82.75-3,1.25a2.2,2.2,0,0,0-.61.28q1.84,4.9,3.67,9.83l0,0-1-.78-1.67-1.4-1.56-1.33L105.7,23.3,104.13,22l-1.44-1.23a.26.26,0,0,0-.29-.05c-.54.2-1.08.38-1.62.57-1.1.4-2.2.79-3.29,1.2-.76.29-1.54.55-2.31.84s-1.48.52-2.22.79l-2.75,1a.43.43,0,0,1-.23,0,.57.57,0,0,1,0-.36c.38-1,.75-2,1.12-3.05.6-1.62,1.21-3.23,1.81-4.84.12-.32.22-.65.35-1,0-.1,0-.17,0-.25l-.38-.43c-.44-.48-.91-.93-1.32-1.43-.27-.32-.6-.58-.85-.91s-.63-.62-.9-1-.58-.57-.82-.89-.81-.77-1.11-1.26a2.77,2.77,0,0,0-.39-.37L86.33,8.15V8l5.3,1.1,4.59.94h.15s.07,0,.07-.06a1,1,0,0,1,.14-.33,9.38,9.38,0,0,0,.51-.94c.36-.7.74-1.38,1.11-2.08s.71-1.43,1.1-2.12.71-1.35,1.07-2,.65-1.22,1-1.83l.14,0"/><path class="cls-1" d="M48.48,38.77c-.24-.21-.44-.4-.65-.57a5.27,5.27,0,0,0-6.66-.07,4.55,4.55,0,0,0,.4,7.44,5.19,5.19,0,0,0,5.41.24.45.45,0,0,0,.29-.51,3.09,3.09,0,0,1,0-.43c0-.29,0-.29-.31-.29H45.37c-.33,0-.33,0-.33-.33v-4.4c0-.32,0-.33.34-.33H52c.34,0,.33,0,.33.34V51c0,.15-.06.22-.21.22s-.53,0-.79,0H47.7a3.7,3.7,0,0,0-.88.08,11.46,11.46,0,0,1-4.17.1,9.84,9.84,0,0,1-3.57-1.3,6.25,6.25,0,0,1-1-.69A11.64,11.64,0,0,1,36.71,48c-.32-.43-.68-.82-1-1.28a9.15,9.15,0,0,1-1.15-2.8,11.41,11.41,0,0,1-.18-3.35A9.08,9.08,0,0,1,35,38.16a7.46,7.46,0,0,1,1-1.8,11.67,11.67,0,0,1,1.47-1.74A10,10,0,0,1,42,32.19,10.38,10.38,0,0,1,51.4,34.6l.08.08c.4.34.4.34.05.71l-2.89,3.17-.16.21"/><path class="cls-1" d="M23.91,51.5a15.85,15.85,0,0,1-1.68-.14,7.51,7.51,0,0,1-2.42-.76A9,9,0,0,1,17,48.44a9.88,9.88,0,0,1-1.61-2.38A8.14,8.14,0,0,1,14.65,44a11.94,11.94,0,0,1-.14-3.58A9.2,9.2,0,0,1,15,38.28a10,10,0,0,1,1.5-2.72,11.17,11.17,0,0,1,1.14-1.24A9.45,9.45,0,0,1,22.47,32a8.9,8.9,0,0,1,4.76.52,9.39,9.39,0,0,1,4.15,3.19,10.05,10.05,0,0,1,1.86,4.41A9.81,9.81,0,0,1,33,44.48a10.24,10.24,0,0,1-1.61,3.24A9.48,9.48,0,0,1,29,50a9.85,9.85,0,0,1-2.26,1.1,8.57,8.57,0,0,1-2.8.42m-4.4-10.17a5.36,5.36,0,0,0,.64,2.84,4.22,4.22,0,0,0,6.45,1.27,5,5,0,0,0-.06-7.51A4,4,0,0,0,22,37.48a4.49,4.49,0,0,0-2.44,3.85"/><path class="cls-1" d="M63,51.5a14.44,14.44,0,0,1-1.68-.14,7.27,7.27,0,0,1-2.42-.76A6.69,6.69,0,0,1,57,49.28c-.17-.17-.38-.29-.55-.46s-.55-.68-.84-1A7.81,7.81,0,0,1,54.42,46a7.25,7.25,0,0,1-.62-1.7,11.79,11.79,0,0,1-.21-3.93,10.36,10.36,0,0,1,.47-2.07,8.72,8.72,0,0,1,.84-1.74,7.62,7.62,0,0,1,.59-.89,9.56,9.56,0,0,1,2.63-2.4A9.39,9.39,0,0,1,61.82,32a8.93,8.93,0,0,1,4.73.68,9.3,9.3,0,0,1,3,2.06,10,10,0,0,1,2.55,4.57,9.64,9.64,0,0,1,.15,4.14A10,10,0,0,1,70,48.25a9.38,9.38,0,0,1-3.27,2.46,7.59,7.59,0,0,1-1.44.54,8.76,8.76,0,0,1-2.3.25M63.31,37a4.3,4.3,0,0,0-3.2,1.13,5,5,0,0,0,0,7.16,4.18,4.18,0,0,0,5.72,0,5,5,0,0,0,.72-6.39A4.1,4.1,0,0,0,63.31,37"/><path class="cls-1" d="M0,41.59v-8.9a2.09,2.09,0,0,0,0-.25c0-.13,0-.21.18-.2H6.92a6.17,6.17,0,0,1,3.72,1.18,5.48,5.48,0,0,1,1.52,1.66,5.69,5.69,0,0,1,.14,5.83c-.18.32-.17.27,0,.52a5.79,5.79,0,0,1-.73,8.14,6,6,0,0,1-2,1.12,5.47,5.47,0,0,1-1.92.3H.32C0,51,0,51,0,50.67c0-1.91,0-3.82,0-5.73V41.59m4.75,3.53v1.55c0,.26,0,.27.25.27.94,0,1.88,0,2.81,0a1.75,1.75,0,0,0,1.31-.59,1.71,1.71,0,0,0,.33-1.91,1.74,1.74,0,0,0-1.66-1.11c-.93,0-1.85,0-2.77,0-.26,0-.27,0-.27.25v1.55m0-7v1.55c0,.25,0,.26.26.26H6.38a7.19,7.19,0,0,0,1,0,1.79,1.79,0,0,0-.19-3.56c-.74,0-1.49,0-2.23,0-.24,0-.25,0-.25.27v1.51"/><path class="cls-1" d="M81.53,32h8.33c.44,0,.4,0,.4.4V37.6c0,.09-.05.13-.14.13H84.75c-.13,0-.2,0-.19.19V50.72c0,.5,0,.44-.45.44H78.74c-.14,0-.2-.05-.19-.19V38.08c0-.34,0-.34-.33-.34s-.94,0-1.41,0H73.14c-.33,0-.34,0-.34-.35v-5a.75.75,0,0,0,0-.15c0-.13,0-.2.19-.2h8.54Z"/><path class="cls-1" d="M110.84,0a8.67,8.67,0,0,0,.3,1.11c.12.45.25.9.37,1.34a.44.44,0,0,0,.39.35c.8.15,1.61.34,2.41.51,0,0,0,0,.06.07a3,3,0,0,1-.62.44l-1.56,1c-.12.08-.09.17,0,.28.26.72.51,1.44.76,2.16,0,.11.07.22.12.39a5.6,5.6,0,0,1-.87-.64c-.45-.36-.89-.71-1.33-1.08-.12-.1-.19-.1-.34,0-.79.53-1.61,1-2.41,1.56a1.17,1.17,0,0,1-.36.16.47.47,0,0,1,0-.31c.28-.73.54-1.46.82-2.18a.32.32,0,0,0-.08-.4c-.93-1-1.91-2-2.86-2.94-.1-.1-.24-.17-.22-.35s.21,0,.31,0l3.36.71c.25,0,.31,0,.43-.19L110.59.15a.84.84,0,0,0,.06-.14.31.31,0,0,1,.19,0"/><path class="cls-1" d="M82.75,21.56c.23-.78.55-1.53.83-2.29a.38.38,0,0,0-.08-.46c-.4-.37-.78-.75-1.14-1.15-.54-.61-1.14-1.17-1.7-1.76,0-.06-.14-.1-.11-.22a1.44,1.44,0,0,1,.58.09l3.11.67c.3.07.32,0,.49-.26.32-.59.53-1.22.87-1.8a1.42,1.42,0,0,1,.12-.2l.41,1.43c.1.36.2.73.31,1.09a.34.34,0,0,0,.29.27c.81.15,1.61.33,2.44.52a2,2,0,0,1-.6.46c-.47.31-.94.6-1.41.89a.24.24,0,0,0-.13.33c.17.43.31.87.46,1.31s.24.7.38,1.09a2.36,2.36,0,0,1-.79-.55c-.42-.32-.83-.68-1.25-1-.18-.15-.28-.14-.51,0L83,21.56l-.07,0-.14,0"/></g></g></svg>