<svg xmlns="http://www.w3.org/2000/svg" viewBox="0 0 145.81 152.2"><defs><style>.cls-1{fill:#666;}</style></defs><g id="Capa_2" data-name="Capa 2"><g id="Capa_1-2" data-name="Capa 1"><path class="cls-1" d="M143.68,139,102.14,95a57.81,57.81,0,1,0-45.92,20.64l1.69,0a57.34,57.34,0,0,0,32.61-10.16l41.77,44.22a7.87,7.87,0,0,0,5.7,2.45A7.84,7.84,0,0,0,143.68,139Zm-87-39A42.2,42.2,0,0,1,28.88,27.16a41.91,41.91,0,0,1,29-11.53c.41,0,.82,0,1.23,0A42.2,42.2,0,0,1,86.84,88.51,41.91,41.91,0,0,1,56.67,100Z"/></g></g></svg>